<svg width="2100" height="500" xmlns="http://www.w3.org/2000/svg" xmlns:xlink="http://www.w3.org/1999/xlink" version="1.1">
 <metadata id="metadata25"/>
 <title id="title2">logo</title>
 <desc id="desc4">Created with Sketch.</desc>
 <defs id="defs7">
  <path d="m44.04138,343.22228l0,-133.64212l-34.75302,0l0,0c-5.15462,0 -9.33326,-4.17864 -9.33326,-9.33325c0,-2.44791 0.96171,-4.79783 2.67789,-6.54338l187.00563,-190.20612l0,0c4.51726,-4.59457 11.90386,-4.65724 16.49843,-0.13998c0.0404,0.03969 0.0805,0.07968 0.12024,0.11995l97.60103,98.79384l0,-18.29736l0,0c0,-4.29551 3.4822,-7.77771 7.77771,-7.77771l32.41078,0l0,0c4.29551,0 7.77771,3.4822 7.77771,7.77771l0,67.13797l41.56811,42.6183c3.59911,3.69005 3.5254,9.59908 -0.16465,13.19819c-1.74316,1.70021 -4.08175,2.65184 -6.51677,2.65184l-34.88669,0l0,133.64212c0,4.29552 -3.4822,7.77772 -7.77771,7.77772l-292.22772,0c-4.29551,0 -7.77771,-3.4822 -7.77771,-7.77772zm206.39272,-163.26031c0.93644,-1.96383 1.46083,-4.16333 1.46083,-6.48575c0,-8.30819 -6.711,-15.04331 -14.98944,-15.04331c-8.27844,0 -14.98944,6.73512 -14.98944,15.04331c0,8.30819 6.711,15.04331 14.98944,15.04331c2.3141,0 4.50573,-0.52628 6.46253,-1.46608l21.51776,21.5951l0,20.91809l-26.98099,27.07795l0,-19.83957c5.82186,-2.06513 9.99296,-7.63737 9.99296,-14.18732c0,-8.30819 -6.711,-15.04331 -14.98944,-15.04331c-8.27844,0 -14.98944,6.73512 -14.98944,15.04331c0,6.54995 4.1711,12.12219 9.99296,14.18732l0,29.86845l-24.9824,25.07218l0,-147.28189l20.51847,-20.59221c1.95679,0.9398 4.14842,1.46608 6.46252,1.46608c8.27844,0 14.98944,-6.73512 14.98944,-15.04331c0,-8.30819 -6.711,-15.04331 -14.98944,-15.04331c-8.27844,0 -14.98944,6.73512 -14.98944,15.04331c0,2.32242 0.52439,4.52192 1.46083,6.48575l-18.44886,18.51516l-18.44886,-18.51516c0.93644,-1.96383 1.46083,-4.16333 1.46083,-6.48575c0,-8.30819 -6.711,-15.04331 -14.98944,-15.04331c-8.27844,0 -14.98944,6.73512 -14.98944,15.04331c0,8.30819 6.711,15.04331 14.98944,15.04331c2.3141,0 4.50573,-0.52628 6.46252,-1.46608l20.51847,20.59221l0,105.16062l-35.97465,-36.10394l0,-28.86557c5.82186,-2.06512 9.99296,-7.63736 9.99296,-14.18731c0,-8.30819 -6.711,-15.04331 -14.98944,-15.04331c-8.27844,0 -14.98944,6.73512 -14.98944,15.04331c0,6.54995 4.1711,12.12219 9.99296,14.18731l0,18.8367l-27.98029,-28.08085l0,-27.86268c5.82186,-2.06512 9.99296,-7.63736 9.99296,-14.18731c0,-8.30819 -6.711,-15.04331 -14.98944,-15.04331c-8.27843,0 -14.98944,6.73512 -14.98944,15.04331c0,6.54995 4.1711,12.12219 9.99296,14.18731l0,32.01678l30.90716,31.01823l-17.76994,0c-2.05773,-5.84278 -7.61002,-10.02887 -14.13651,-10.02887c-8.27844,0 -14.98944,6.73512 -14.98944,15.04331c0,8.30819 6.711,15.04331 14.98944,15.04331c6.52649,0 12.07878,-4.18609 14.13651,-10.02888l27.7629,0l43.04074,43.19543l0,75.07401l-22.98381,-23.06641l0,-28.86557c5.82186,-2.06513 9.99296,-7.63736 9.99296,-14.18731c0,-8.3082 -6.711,-15.04331 -14.98944,-15.04331c-8.27843,0 -14.98943,6.73511 -14.98943,15.04331c0,6.54995 4.1711,12.12218 9.99296,14.18731l0,18.83669l-33.4383,-33.55847c0.93644,-1.96383 1.46083,-4.16333 1.46083,-6.48575c0,-8.30819 -6.711,-15.04331 -14.98944,-15.04331c-8.27844,0 -14.98944,6.73512 -14.98944,15.04331c0,8.30819 6.711,15.04331 14.98944,15.04331c2.3141,0 4.50572,-0.52627 6.46252,-1.46607l33.4383,33.55847l-17.76994,0c-2.05774,-5.84278 -7.61002,-10.02887 -14.13651,-10.02887c-8.27844,0 -14.98944,6.73511 -14.98944,15.04331c0,8.30819 6.711,15.04331 14.98944,15.04331c6.52649,0 12.07877,-4.18609 14.13651,-10.02888l27.7629,0l27.98028,28.08085l14.13218,0l28.97958,-29.08374l26.76361,0c2.05773,5.84279 7.61001,10.02888 14.13651,10.02888c8.27843,0 14.98943,-6.73512 14.98943,-15.04331c0,-8.30819 -6.711,-15.04331 -14.98943,-15.04331c-6.5265,0 -12.07878,4.18609 -14.13651,10.02887l-30.90283,0l-26.90997,27.00669l0,-32.95274l32.04849,-32.16367l51.746,0c2.05773,5.84279 7.61001,10.02888 14.13651,10.02888c8.27844,0 14.98944,-6.73512 14.98944,-15.04331c0,-8.30819 -6.711,-15.04331 -14.98944,-15.04331c-6.5265,0 -12.07878,4.18609 -14.13651,10.02887l-41.75304,0l29.90786,-30.01535l0,-25.07218l21.51776,-21.5951c1.9568,0.9398 4.14842,1.46608 6.46252,1.46608c8.27844,0 14.98944,-6.73512 14.98944,-15.04331c0,-8.30819 -6.711,-15.04331 -14.98944,-15.04331c-8.27844,0 -14.98944,6.73512 -14.98944,15.04331c0,2.32242 0.52439,4.52192 1.46083,6.48575l-14.45167,14.50361l0,-45.91465c5.82186,-2.06513 9.99296,-7.63737 9.99296,-14.18732c0,-8.30819 -6.71101,-15.04331 -14.98944,-15.04331c-8.27844,0 -14.98944,6.73512 -14.98944,15.04331c0,6.54995 4.1711,12.12219 9.99296,14.18732l0,45.91465l-14.45168,-14.50361zm-129.44693,143.94735c-3.31138,0 -5.99578,-2.69405 -5.99578,-6.01732c0,-3.32328 2.6844,-6.01733 5.99578,-6.01733c3.31137,0 5.99577,2.69405 5.99577,6.01733c0,3.32327 -2.6844,6.01732 -5.99577,6.01732zm43.96901,-45.12993c-3.31137,0 -5.99577,-2.69405 -5.99577,-6.01732c0,-3.32328 2.6844,-6.01733 5.99577,-6.01733c3.31138,0 5.99578,2.69405 5.99578,6.01733c0,3.32327 -2.6844,6.01732 -5.99578,6.01732zm-51.96338,-7.02021c-3.31138,0 -5.99578,-2.69405 -5.99578,-6.01733c0,-3.32327 2.6844,-6.01732 5.99578,-6.01732c3.31137,0 5.99577,2.69405 5.99577,6.01732c0,3.32328 -2.6844,6.01733 -5.99577,6.01733zm-4.99648,-50.14437c-3.31138,0 -5.99578,-2.69405 -5.99578,-6.01732c0,-3.32328 2.6844,-6.01733 5.99578,-6.01733c3.31137,0 5.99577,2.69405 5.99577,6.01733c0,3.32327 -2.6844,6.01732 -5.99577,6.01732zm124.91199,7.02021c-3.31138,0 -5.99578,-2.69405 -5.99578,-6.01732c0,-3.32328 2.6844,-6.01732 5.99578,-6.01732c3.31137,0 5.99577,2.69404 5.99577,6.01732c0,3.32327 -2.6844,6.01732 -5.99577,6.01732zm67.95212,46.13282c-3.31138,0 -5.99577,-2.69405 -5.99577,-6.01732c0,-3.32328 2.68439,-6.01733 5.99577,-6.01733c3.31138,0 5.99578,2.69405 5.99578,6.01733c0,3.32327 -2.6844,6.01732 -5.99578,6.01732zm-25.98169,48.13859c-3.31138,0 -5.99578,-2.69405 -5.99578,-6.01732c0,-3.32328 2.6844,-6.01733 5.99578,-6.01733c3.31137,0 5.99577,2.69405 5.99577,6.01733c0,3.32327 -2.6844,6.01732 -5.99577,6.01732zm27.98028,-143.41289c-3.31137,0 -5.99577,-2.69404 -5.99577,-6.01732c0,-3.32328 2.6844,-6.01732 5.99577,-6.01732c3.31138,0 5.99578,2.69404 5.99578,6.01732c0,3.32328 -2.6844,6.01732 -5.99578,6.01732zm-32.97676,-39.1126c-3.31138,0 -5.99578,-2.69405 -5.99578,-6.01733c0,-3.32327 2.6844,-6.01732 5.99578,-6.01732c3.31137,0 5.99577,2.69405 5.99577,6.01732c0,3.32328 -2.6844,6.01733 -5.99577,6.01733zm-39.97184,-24.0693c-3.31138,0 -5.99578,-2.69405 -5.99578,-6.01732c0,-3.32328 2.6844,-6.01733 5.99578,-6.01733c3.31137,0 5.99578,2.69405 5.99578,6.01733c0,3.32327 -2.68441,6.01732 -5.99578,6.01732zm-63.95494,0c-3.31137,0 -5.99577,-2.69405 -5.99577,-6.01732c0,-3.32328 2.6844,-6.01733 5.99577,-6.01733c3.31138,0 5.99578,2.69405 5.99578,6.01733c0,3.32327 -2.6844,6.01732 -5.99578,6.01732zm-51.96339,23.06641c-3.31137,0 -5.99577,-2.69405 -5.99577,-6.01732c0,-3.32328 2.6844,-6.01733 5.99577,-6.01733c3.31138,0 5.99578,2.69405 5.99578,6.01733c0,3.32327 -2.6844,6.01732 -5.99578,6.01732zm37.97325,37.10683c-3.31138,0 -5.99578,-2.69405 -5.99578,-6.01732c0,-3.32328 2.6844,-6.01733 5.99578,-6.01733c3.31137,0 5.99577,2.69405 5.99577,6.01733c0,3.32327 -2.6844,6.01732 -5.99577,6.01732zm84.94015,3.00866c-3.31137,0 -5.99577,-2.69404 -5.99577,-6.01732c0,-3.32328 2.6844,-6.01732 5.99577,-6.01732c3.31138,0 5.99578,2.69404 5.99578,6.01732c0,3.32328 -2.6844,6.01732 -5.99578,6.01732z" id="path-1"/>
 </defs>
 <g>
  <title>Layer 1</title>
  <rect ry="50.847" stroke-width="2.049" fill="#7f0000" height="500" width="2100" id="Rectangle-2" y="0" x="2.00002"/>
  <text xml:space="preserve" word-spacing="0" letter-spacing="0" font-weight="normal" font-style="normal" font-size="8" font-family="sans-serif" fill="#000" y="198.948" x="577.65102" id="text881">
   <tspan font-weight="normal" font-variant="normal" font-style="normal" font-stretch="normal" font-size="173.333" font-family="Roboto" fill="#fff" id="tspan852">Log in to</tspan>
   <tspan font-weight="normal" font-variant="normal" font-style="normal" font-stretch="normal" font-family="Roboto" fill="#fff" y="436.281" x="584.65102" id="tspan887" font-size="173.333">IoTology Assistant</tspan>
  </text>
  <g id="house-with-large-tree">
   <mask fill="#fff" id="mask-2">
    <use xlink:href="#path-1" y="0" x="0" height="100%" width="100%" id="use11"/>
   </mask>
   <g mask="url(#mask-2)" fill-rule="evenodd" fill="#fff" id="fill/white">
    <rect y="70" x="52" height="351" width="396" id="rect15"/>
   </g>
  </g>
 </g>
</svg>