<svg xmlns="http://www.w3.org/2000/svg" xmlns:svg="http://www.w3.org/2000/svg" width="480" height="480" version="1.1"><rect id="backgroundrect" width="100%" height="100%" x="0" y="0" fill="none" stroke="none"/><metadata id="metadata184"/><defs id="defs25"><linearGradient id="color-1" x1="0.0000022249260371015952" x2="1.537562976001736" y1="0.0000021770975557414727" y2="1.461897229073168"><stop id="stop2" offset="0" stop-color="#000" stop-opacity=".36"/><stop id="stop4" offset="1" stop-color="#000" stop-opacity="0"/></linearGradient><filter id="dropshadow-base"><feColorMatrix id="feColorMatrix7" type="matrix" values="0 0 0 0 0 0 0 0 0 0 0 0 0 0 0 0 0 0 .8 0"/><feOffset id="feOffset9" dx="0" dy="1"/><feGaussianBlur id="feGaussianBlur11" result="result1" stdDeviation="1"/><feComposite id="feComposite13" in="SourceGraphic" in2="result1"/></filter><filter id="dropshadow-banner" width="1.2000000476837158" height="1.2999999523162842" x="-0.10000000149011612" y="-0.10000000149011612"><feColorMatrix id="feColorMatrix16" type="matrix" values="0 0 0 0 0 0 0 0 0 0 0 0 0 0 0 0 0 0 .4 0"/><feOffset id="feOffset18" dx="0" dy="1"/><feGaussianBlur id="feGaussianBlur20" result="result1" stdDeviation=".5"/><feComposite id="feComposite22" in="SourceGraphic" in2="result1"/></filter></defs><g class="currentLayer" style=""><title>Layer 1</title><path id="base 1 25 1" fill="none" stroke-width="10.909091" d="M-5.000002238418578,244.28571438789365 C-5.000002238418578,111.73742237423369 102.45170774792143,4.285712387893678 234.9999997615814,4.285712387893678 C367.54829177524147,4.285712387893678 475.0000017615815,111.73742237423369 475.0000017615815,244.28571438789365 C475.0000017615815,376.8340064015537 367.54829177524147,484.28571638789373 234.9999997615814,484.28571638789373 C102.45170774792143,484.28571638789373 -5.000002238418578,376.8340064015537 -5.000002238418578,244.28571438789365 z" class=""/><path id="base 1 21 1" fill="none" stroke-width="10.909091" d="M-5.000002238418578,244.28571438789365 C-5.000002238418578,111.73742237423369 102.45170774792143,4.285712387893678 234.9999997615814,4.285712387893678 C367.54829177524147,4.285712387893678 475.0000017615815,111.73742237423369 475.0000017615815,244.28571438789365 C475.0000017615815,376.8340064015537 367.54829177524147,484.28571638789373 234.9999997615814,484.28571638789373 C102.45170774792143,484.28571638789373 -5.000002238418578,376.8340064015537 -5.000002238418578,244.28571438789365 z" class=""/><path id="base 1 17 1" fill="none" stroke-width="10.909091" d="M-5.000002238418578,244.28571438789365 C-5.000002238418578,111.73742237423369 102.45170774792143,4.285712387893678 234.9999997615814,4.285712387893678 C367.54829177524147,4.285712387893678 475.0000017615815,111.73742237423369 475.0000017615815,244.28571438789365 C475.0000017615815,376.8340064015537 367.54829177524147,484.28571638789373 234.9999997615814,484.28571638789373 C102.45170774792143,484.28571638789373 -5.000002238418578,376.8340064015537 -5.000002238418578,244.28571438789365 z" class=""/><path id="base 1 13 1" fill="none" stroke-width="10.909091" d="M-5.000002238418578,244.28571438789365 C-5.000002238418578,111.73742237423369 102.45170774792143,4.285712387893678 234.9999997615814,4.285712387893678 C367.54829177524147,4.285712387893678 475.0000017615815,111.73742237423369 475.0000017615815,244.28571438789365 C475.0000017615815,376.8340064015537 367.54829177524147,484.28571638789373 234.9999997615814,484.28571638789373 C102.45170774792143,484.28571638789373 -5.000002238418578,376.8340064015537 -5.000002238418578,244.28571438789365 z" class=""/><path id="base 1 9 1" fill="none" stroke-width="10.909091" d="M-5.000002238418578,244.28571438789365 C-5.000002238418578,111.73742237423369 102.45170774792143,4.285712387893678 234.9999997615814,4.285712387893678 C367.54829177524147,4.285712387893678 475.0000017615815,111.73742237423369 475.0000017615815,244.28571438789365 C475.0000017615815,376.8340064015537 367.54829177524147,484.28571638789373 234.9999997615814,484.28571638789373 C102.45170774792143,484.28571638789373 -5.000002238418578,376.8340064015537 -5.000002238418578,244.28571438789365 z" class=""/><path id="base 1 5 1" fill="none" stroke-width="10.909091" d="M-5.000002238418578,244.28571438789365 C-5.000002238418578,111.73742237423369 102.45170774792143,4.285712387893678 234.9999997615814,4.285712387893678 C367.54829177524147,4.285712387893678 475.0000017615815,111.73742237423369 475.0000017615815,244.28571438789365 C475.0000017615815,376.8340064015537 367.54829177524147,484.28571638789373 234.9999997615814,484.28571638789373 C102.45170774792143,484.28571638789373 -5.000002238418578,376.8340064015537 -5.000002238418578,244.28571438789365 z" class=""/><path id="base 1 1 1" fill="none" stroke-width="10.909091" d="M-5.000002238418578,244.28571438789365 C-5.000002238418578,111.73742237423369 102.45170774792143,4.285712387893678 234.9999997615814,4.285712387893678 C367.54829177524147,4.285712387893678 475.0000017615815,111.73742237423369 475.0000017615815,244.28571438789365 C475.0000017615815,376.8340064015537 367.54829177524147,484.28571638789373 234.9999997615814,484.28571638789373 C102.45170774792143,484.28571638789373 -5.000002238418578,376.8340064015537 -5.000002238418578,244.28571438789365 z" class=""/><rect id="rect49" width="44" height="22" x="1.5416666486310726" y="2.3928571489497754" fill="none" stroke-width="10.909091" transform="matrix(10.909091,0,0,10.909091,-21.818184,-21.818184) " class=""/><path id="path51" fill="none" stroke-width="10.909091" d="M-5.000002238418578,244.28571438789365 V4.285712387893678 h480.000004 v240.000002 z" class=""/><path id="path53" fill="none" stroke-width="10.909091" d="M-5.000002238418578,244.28571438789365 V4.285712387893678 h480.000004 v240.000002 z" class=""/><path id="path55" fill="none" stroke-width="10.909091" d="M-5.000002238418578,244.28571438789365 V4.285712387893678 h480.000004 v240.000002 z" class=""/><path id="path57" fill="none" stroke-width="10.909091" d="M-5.000002238418578,244.28571438789365 V4.285712387893678 h480.000004 v240.000002 z" class=""/><rect id="rect66" width="44" height="22" x="1.5416666486310726" y="2.3928571489497754" fill="none" stroke-width="10.909091" transform="matrix(10.909091,0,0,10.909091,-21.818184,-21.818184) " class=""/><path id="path68" fill="none" stroke-width="10.909091" d="M-5.000002238418578,244.28571438789365 V4.285712387893678 h480.000004 v240.000002 z" class=""/><path id="path70" fill="none" stroke-width="10.909091" d="M-5.000002238418578,244.28571438789365 V4.285712387893678 h480.000004 v240.000002 z" class=""/><path id="path72" fill="none" stroke-width="10.909091" d="M-5.000002238418578,244.28571438789365 V4.285712387893678 h480.000004 v240.000002 z" class=""/><path id="path74" fill="none" stroke-width="10.909091" d="M-5.000002238418578,244.28571438789365 V4.285712387893678 h480.000004 v240.000002 z" class=""/><rect id="rect83" width="44" height="22" x="1.5416666486310726" y="2.3928571489497754" fill="none" stroke-width="10.909091" transform="matrix(10.909091,0,0,10.909091,-21.818184,-21.818184) " class=""/><path id="path85" fill="none" stroke-width="10.909091" d="M-5.000002238418578,244.28571438789365 V4.285712387893678 h480.000004 v240.000002 z" class=""/><path id="path87" fill="none" stroke-width="10.909091" d="M-5.000002238418578,244.28571438789365 V4.285712387893678 h480.000004 v240.000002 z" class=""/><path id="path89" fill="none" stroke-width="10.909091" d="M-5.000002238418578,244.28571438789365 V4.285712387893678 h480.000004 v240.000002 z" class=""/><path id="path91" fill="none" stroke-width="10.909091" d="M-5.000002238418578,244.28571438789365 V4.285712387893678 h480.000004 v240.000002 z" class=""/><rect id="rect100" width="44" height="22" x="1.5416666486310726" y="2.3928571489497754" fill="none" stroke-width="10.909091" transform="matrix(10.909091,0,0,10.909091,-21.818184,-21.818184) " class=""/><path id="path102" fill="none" stroke-width="10.909091" d="M-5.000002238418578,244.28571438789365 V4.285712387893678 h480.000004 v240.000002 z" class=""/><path id="path104" fill="none" stroke-width="10.909091" d="M-5.000002238418578,244.28571438789365 V4.285712387893678 h480.000004 v240.000002 z" class=""/><path id="path106" fill="none" stroke-width="10.909091" d="M-5.000002238418578,244.28571438789365 V4.285712387893678 h480.000004 v240.000002 z" class=""/><path id="path108" fill="none" stroke-width="10.909091" d="M-5.000002238418578,244.28571438789365 V4.285712387893678 h480.000004 v240.000002 z" class=""/><rect id="rect117" width="44" height="22" x="1.5416666486310726" y="2.3928571489497754" fill="none" stroke-width="10.909091" transform="matrix(10.909091,0,0,10.909091,-21.818184,-21.818184) " class=""/><path id="path119" fill="none" stroke-width="10.909091" d="M-5.000002238418578,244.28571438789365 V4.285712387893678 h480.000004 v240.000002 z" class=""/><path id="path121" fill="none" stroke-width="10.909091" d="M-5.000002238418578,244.28571438789365 V4.285712387893678 h480.000004 v240.000002 z" class=""/><path id="path123" fill="none" stroke-width="10.909091" d="M-5.000002238418578,244.28571438789365 V4.285712387893678 h480.000004 v240.000002 z" class=""/><path id="path125" fill="none" stroke-width="10.909091" d="M-5.000002238418578,244.28571438789365 V4.285712387893678 h480.000004 v240.000002 z" class=""/><rect id="rect134" width="44" height="22" x="1.5416666486310726" y="2.3928571489497754" fill="none" stroke-width="10.909091" transform="matrix(10.909091,0,0,10.909091,-21.818184,-21.818184) " class=""/><path id="path136" fill="none" stroke-width="10.909091" d="M-5.000002238418578,244.28571438789365 V4.285712387893678 h480.000004 v240.000002 z" class=""/><path id="path138" fill="none" stroke-width="10.909091" d="M-5.000002238418578,244.28571438789365 V4.285712387893678 h480.000004 v240.000002 z" class=""/><path id="path140" fill="none" stroke-width="10.909091" d="M-5.000002238418578,244.28571438789365 V4.285712387893678 h480.000004 v240.000002 z" class=""/><path id="path142" fill="none" stroke-width="10.909091" d="M-5.000002238418578,244.28571438789365 V4.285712387893678 h480.000004 v240.000002 z" class=""/><rect id="rect151" width="44" height="22" x="1.5416666486310726" y="2.3928571489497754" fill="none" stroke-width="10.909091" transform="matrix(10.909091,0,0,10.909091,-21.818184,-21.818184) " class=""/><path id="path153" fill="none" stroke-width="10.909091" d="M-5.000002238418578,244.28571438789365 V4.285712387893678 h480.000004 v240.000002 z" class=""/><path id="path155" fill="none" stroke-width="10.909091" d="M-5.000002238418578,244.28571438789365 V4.285712387893678 h480.000004 v240.000002 z" class=""/><path id="path157" fill="none" stroke-width="10.909091" d="M-5.000002238418578,244.28571438789365 V4.285712387893678 h480.000004 v240.000002 z" class=""/><path id="path159" fill="none" stroke-width="10.909091" d="M-5.000002238418578,244.28571438789365 V4.285712387893678 h480.000004 v240.000002 z" class=""/><rect id="rect168" width="44" height="22" x="1.5416666486310726" y="2.3928571489497754" fill="none" stroke-width="10.909091" transform="matrix(10.909091,0,0,10.909091,-21.818184,-21.818184) " class=""/><path id="path170" fill="none" stroke-width="10.909091" d="M-5.000002238418578,244.28571438789365 V4.285712387893678 h480.000004 v240.000002 z" class=""/><path id="path172" fill="none" stroke-width="10.909091" d="M-5.000002238418578,244.28571438789365 V4.285712387893678 h480.000004 v240.000002 z" class=""/><path id="path174" fill="none" stroke-width="10.909091" d="M-5.000002238418578,244.28571438789365 V4.285712387893678 h480.000004 v240.000002 z" class=""/><path id="path176" fill="none" stroke-width="10.909091" d="M-5.000002238418578,244.28571438789365 V4.285712387893678 h480.000004 v240.000002 z" class=""/><path id="base 1 33" fill="#b80404" stroke-width="10.909091" d="M49.545452761581416,451.5584433878937 C37.49559811571142,451.5584433878937 27.727270761581423,441.79011603376375 27.727270761581423,429.7402613878937 V58.83116738789367 C27.727270761581423,46.78131274202367 37.49559811571142,37.01298538789368 49.545452761581416,37.01298538789368 h370.909094 c12.04985464587,0 21.818182,9.768327354130001 21.818182,21.818182 v370.909094 c0,12.04985464587 -9.768327354130001,21.818182 -21.818182,21.818182 z" class="" fill-opacity="1"/><path id="path28" fill="#e84141" stroke-width="10.909091" d="M73.245055599782,397.7001642234925 V264.4443085675724 L37.34716439154204,228.5464173593324 L223.60407503459206,42.289506716282375 L430.12985857382205,248.8152902555123 v173.06771053314 c0,12.04985464587 -9.768327354130001,21.818182 -21.818182,21.818182 H119.24618325585203 zm300.71814796052996,0 v-42.93610944871 l-42.93610944871,42.93610944871 z" class="" transform="rotate(0.5192774534225464 233.7384948730486,242.99534606933798) " fill-opacity="1"/><path id="rect840 1 1" fill="none" stroke-width="0" d="M-208.55201704438508,102.30292966421527 L-22.295106401335087,288.5459741877974 H-58.19299760957511 V457.68701911527506 H-358.9110364791951 V288.5459741877974 H-394.8089276874351 z" class="" transform="rotate(89.7876968383789 -208.55201721191403,279.9949645996094) "/><g id="g1692 1" stroke-width="0" transform="rotate(0.46734464168548584 224.31837463379497,221.42347717285128) " class=""><path id="rect840 1" fill="#424242" stroke-width="1.9745454709999999" d="m111.54936775118199,221.42347745201846 h225.07003823922 c0.2538545475700003,0 0.4581818220000001,0.23705454743000004 0.4581818220000001,0.5316000044300015 v139.1858193417 c0,0.29454545700000007 -0.20432727443,0.5316000044300015 -0.4581818220000001,0.5316000044300015 H111.54936775118199 c-0.2538545475700003,0 -0.4581818220000001,-0.23716363834000004 -0.4581818220000001,-0.5316000044300015 v-139.1858193417 c0,-0.29454545700000007 0.20432727443,-0.5316000044300015 0.4581818220000001,-0.5316000044300015 z"/><path id="path842 1" fill="#e0e0e0" stroke-width="267.752729504" d="m337.0875150852121,361.5395149832884 c-0.00010909091000000027,-26.819782041680003 -0.0006545454600000007,-140.11603753127 -0.0006545454600000007,-140.11603753127 H250.18089617917212 v67.73607329174 h-10.344981904390002 v-67.73607329174 h-65.17330963402 v10.344981904390002 c0,0 8.72061825449,4.28280003569 10.344981904390002,10.344981904390002 h-22.75898200784 c1.55203637657,-5.79240004827 10.344981904390002,-10.344981904390002 10.344981904390002,-10.344981904390002 v-10.344981904390002 h-61.04421869052 v67.73607329174 h225.53749278857 l0.0003272727300000013,8.466981888740001 H208.80096856161208 v63.913200532610006 h-10.344981904390002 c-1.7241818325500036,0 1.7241818325500036,-63.913200532610006 0,-63.913200532610006 h-86.90629163331 l-0.0003272727300000013,63.913200532610006 M224.31838687274205,43.7182032438684 L410.57529751579204,229.9751138869184 H374.677406307552 V399.12875166016846 H73.95936743793209 V229.9751138869184 H38.06147622969206 z"/></g><path id="base 1 29 1" fill="none" stroke-width="10.909091" d="M624.2857231958008,183.5714258505249 C624.2857231958008,51.0231358505249 76.73742319580079,-5.000004149475098 209.28571319580078,-5.000004149475098 C341.8340031958008,-5.000004149475098 449.2857131958008,102.4517058505249 449.2857131958008,234.9999958505249 C449.2857131958008,367.5482958505249 99.69114319580078,229.2857158505249 -32.85714680419922,229.2857158505249 C-165.4054368041992,229.2857158505249 624.2857231958008,316.1197158505249 624.2857231958008,183.5714258505249 z" class=""/></g></svg>